<?xml version="1.0" encoding="utf-8"?>
<!-- Generator: Adobe Illustrator 25.4.0, SVG Export Plug-In . SVG Version: 6.00 Build 0)  -->
<svg version="1.1" id="Layer_1" xmlns="http://www.w3.org/2000/svg" xmlns:xlink="http://www.w3.org/1999/xlink" x="0px" y="0px"
	 viewBox="0 0 501 501" style="enable-background:new 0 0 501 501;" xml:space="preserve">
<style type="text/css">
	.st0{fill:#F1DEC6;}
	.st1{fill:#FFFFFF;}
	.st2{fill:#E52318;}
	.st3{fill:#DEE3DC;}
</style>
<g>
	<path class="st0" d="M424.76,162.13c0.11-0.22,0.22-0.44,0.28-0.66c0.05-0.12,0.05-0.26,0.07-0.37c0.1-0.3,0.18-0.6,0.2-0.88
		c0.04-0.39,0.04-0.79-0.06-1.17c-0.79-4.15-3.2-12.11-8.45-16.18c0.12-0.31,0.25-0.61,0.35-0.89c0.07-0.16,0.11-0.3,0.15-0.41
		c0.22-0.59,0.39-1.15,0.54-1.71c0.02-0.14,0.05-0.25,0.07-0.36c0.11-0.44,0.19-0.9,0.27-1.35c0.03-0.19,0.04-0.39,0.06-0.58
		c0.07-0.39,0.11-0.78,0.12-1.14c0.04-0.19,0.05-0.36,0.05-0.56c0-0.5,0-0.97-0.05-1.48c0-0.25-0.03-0.49-0.04-0.75
		c-0.04-0.28-0.07-0.5-0.11-0.78c-0.04-0.28-0.1-0.56-0.13-0.87c-0.04-0.17-0.09-0.36-0.14-0.53c-0.14-0.64-0.33-1.28-0.56-1.92
		c-0.03-0.09-0.04-0.14-0.05-0.22c-0.15-0.36-0.27-0.72-0.45-1.06c-0.03-0.09-0.06-0.17-0.11-0.26c-1.63-3.59-4.29-6.83-7.69-9.48
		c-5.3-4.18-8.79-8.25-10.65-10.72c0-0.2,0-0.4,0-0.59c0-0.08,0-0.16,0-0.25c0-0.5,0.01-0.94,0.01-1.41c0-0.12,0.03-0.23,0.03-0.37
		c0.07-2.43,0.33-4.38,0.94-5.11c0.4-0.42,0.86-0.95,1.32-1.5c0-0.03,0-0.03,0.02-0.03l0,0c0.94-1.2,1.82-2.63,2.14-4.32h0.01
		c0-0.05,0.03-0.16,0.03-0.25c0.02-0.11,0.04-0.22,0.04-0.36c0.02-0.14,0.02-0.27,0.02-0.44c0-0.17,0-0.34,0-0.53
		c-0.02-0.2-0.03-0.4-0.05-0.59c-0.01-0.11-0.04-0.25-0.06-0.36c-0.04-0.16-0.07-0.33-0.12-0.52c-0.02-0.11-0.07-0.23-0.11-0.34
		c-0.05-0.22-0.11-0.39-0.19-0.58c-0.05-0.11-0.09-0.23-0.13-0.34c-0.1-0.25-0.19-0.45-0.33-0.7c-0.05-0.08-0.09-0.17-0.14-0.27
		c-0.18-0.31-0.38-0.66-0.62-0.99c-4.01-5.83-15.26-12.06-18.24-5.52c-1.06,2.29-2.17,3.48-3.29,4.01
		c-2.84-4.32,0.23-11.47-2.53-16.92c-0.03-0.06-0.05-0.11-0.09-0.17c-0.1-0.23-0.21-0.4-0.32-0.58c-0.06-0.09-0.12-0.17-0.19-0.26
		c-0.12-0.17-0.2-0.33-0.35-0.47c-0.07-0.12-0.16-0.2-0.22-0.31c-0.12-0.14-0.26-0.26-0.37-0.42c-0.11-0.09-0.2-0.19-0.33-0.28
		c-0.11-0.14-0.25-0.25-0.39-0.39c-0.12-0.08-0.25-0.19-0.37-0.27c-0.14-0.14-0.32-0.23-0.47-0.34c-0.13-0.11-0.27-0.2-0.42-0.31
		c-0.18-0.11-0.39-0.22-0.57-0.34c-0.14-0.08-0.27-0.17-0.42-0.25c-0.36-0.17-0.71-0.36-1.11-0.53c-7.5-3.26-14.81-3.2-20.02-1.75
		c-0.05-0.26-0.1-0.48-0.14-0.71c-0.03-0.11-0.04-0.25-0.08-0.35c-0.02-0.14-0.07-0.26-0.11-0.39c0-0.04-0.02-0.06-0.03-0.06
		c-0.06-0.27-0.15-0.53-0.21-0.8c-0.07-0.22-0.16-0.42-0.23-0.64c-0.06-0.14-0.12-0.31-0.18-0.48c-0.04-0.11-0.09-0.22-0.15-0.36
		c-0.19-0.44-0.39-0.89-0.63-1.33c-1.18-2.2-2.94-5.87-4.67-8.73c2.32-1.53,4.09-3.23,4.03-6.68c-0.03-0.58-0.03-1.15,0-1.68
		c0,0,0,0,0-0.02c0.04-1.56,0.15-2.9,0.34-4.01h-0.03c0.66-3.75,2.13-5.25,4.02-6.45c2.63-1.64,3.48-8.44,1.31-10.76
		c-0.07-0.04-0.13-0.12-0.19-0.17h0.02c-0.05-0.06-0.11-0.09-0.14-0.11c-0.09-0.08-0.18-0.17-0.27-0.27
		c-0.04-0.06-0.09-0.09-0.13-0.14c-0.14-0.14-0.27-0.26-0.41-0.4c-0.04-0.02-0.06-0.04-0.11-0.08c-0.14-0.11-0.32-0.27-0.49-0.42
		c-0.04-0.03-0.06-0.06-0.08-0.08c-0.19-0.14-0.37-0.28-0.55-0.45c-0.05-0.03-0.1-0.05-0.15-0.08c-0.15-0.14-0.34-0.28-0.54-0.39
		c-0.05-0.09-0.12-0.12-0.19-0.17c-0.19-0.11-0.35-0.23-0.53-0.34c-0.09-0.05-0.19-0.11-0.28-0.19c-0.15-0.09-0.34-0.17-0.5-0.28
		c-0.11-0.05-0.24-0.11-0.36-0.17c-0.15-0.08-0.29-0.16-0.46-0.22c-0.12-0.05-0.3-0.11-0.46-0.17c-0.14-0.08-0.25-0.14-0.39-0.17
		c-0.19-0.05-0.39-0.11-0.56-0.19c-0.12-0.03-0.22-0.05-0.34-0.09c-0.22-0.04-0.42-0.08-0.63-0.13c-0.11,0-0.23-0.03-0.32-0.03
		c-0.23-0.05-0.46-0.08-0.71-0.08c-0.07,0-0.16-0.04-0.25-0.04c-0.27,0-0.51,0-0.74,0.04c-0.1,0-0.19,0-0.27,0
		c-0.26,0.03-0.51,0.08-0.77,0.13c-0.09,0-0.18,0.03-0.25,0.03c-0.27,0.08-0.54,0.17-0.81,0.26c-0.09,0.03-0.16,0.05-0.23,0.05
		c-0.35,0.14-0.68,0.31-1.03,0.5c-2.57,1.36-6.89,3.17-10.85,5.25c-0.22-1.27-0.63-2.3-1.34-3c-4.13-3.92-15.19-12.2-23.29-4.57
		c-8.1,7.65-15.82,0.28-20.68,9.29c-0.33,0.64-0.66,1.26-0.98,1.81c-0.02,0.03-0.04,0.05-0.07,0.08c-0.32,0.56-0.6,1.06-0.9,1.5
		c-0.02,0.03-0.03,0.09-0.04,0.09c-0.61,1-1.19,1.84-1.74,2.56l0,0c-1.38,1.81-2.6,2.92-3.76,3.62c-2.85-3.68-9.18-4.25-9.18-4.25
		c-5.16-1.34-5.28-4.97-6.98-14c-1.68-9-2.6-16.81-18.11-11.95c-7.03,2.2-8.33,8.52-6.92,14.43c-3.81-3.76-5.85-6.82-6.29-7.51
		c0.18,0.31,0.32,0.61,0.44,0.92c-0.57-1.48-1.64-2.65-3.45-3.18c-7.32-2.22-11.01,8.08-11.01,8.08c-2.57,4.62-6.13,3.85-15.29,3.24
		c-6.05-0.42-11.54-1-14.28,3.44c-0.15-0.03-0.31-0.05-0.48-0.05c-0.27-0.04-0.55-0.06-0.82-0.06c-0.21-0.03-0.44-0.05-0.66-0.05
		h0.01c-1.87-0.08-3.92-0.08-6.26,0.08c-1.11,0.06-2.18,0.23-3.22,0.42c-0.68,0.09-1.36,0.22-2.01,0.4
		c-0.31,0.05-0.6,0.17-0.91,0.25c-0.48,0.12-0.94,0.25-1.4,0.39c-0.05,0.03-0.09,0.03-0.12,0.03l0,0h-0.03
		c-0.25,0.09-0.49,0.19-0.75,0.28c-0.42,0.17-0.85,0.31-1.25,0.5c-0.21,0.08-0.42,0.16-0.64,0.25c-0.13,0.08-0.23,0.14-0.35,0.17
		c-0.35,0.17-0.67,0.33-1.01,0.53c-0.26,0.11-0.48,0.25-0.71,0.35c-0.17,0.11-0.35,0.2-0.52,0.32c-0.09,0.04-0.17,0.11-0.26,0.16
		c-0.11,0.08-0.22,0.14-0.35,0.22c-0.2,0.14-0.37,0.28-0.58,0.39c-0.27,0.17-0.5,0.37-0.75,0.57c-0.15,0.11-0.31,0.22-0.46,0.36
		c-0.09,0.08-0.22,0.17-0.31,0.21c-0.48,0.45-0.92,0.85-1.33,1.26c-3.47,3.54-10.88,10.27-11.93,13.59
		c-0.05,0.17-0.08,0.42-0.09,0.66c0,0.09,0,0.17,0,0.26c0,0.19,0.01,0.42,0.04,0.66c0.02,0.12,0.03,0.19,0.04,0.31
		c0.02,0.3,0.1,0.66,0.19,1.02c0.01,0.17,0.08,0.35,0.1,0.5c0.08,0.23,0.12,0.45,0.18,0.7c0.05,0.22,0.12,0.48,0.19,0.7
		c0.04,0.19,0.11,0.33,0.15,0.53c0.7,2.41,1.66,5.23,2.54,7.96c-2.02,0.61-3.94,1.8-5.57,3.84c-6.9,8.72-15.61,2.59-19.08,12.18
		c-0.25,0.7-0.47,1.32-0.69,1.9c-0.07,0.11-0.09,0.19-0.14,0.3c-0.21,0.5-0.39,1.01-0.6,1.45c-0.02,0.06-0.04,0.09-0.06,0.17
		c-0.23,0.47-0.43,0.95-0.65,1.36c0,0.04-0.02,0.06-0.02,0.09c-0.21,0.42-0.41,0.8-0.63,1.2c-1.47,2.64-2.81,4.08-4.18,4.9
		c-7.29,0.27-12.26-0.81-13.24-1.03c0.34,0.08,0.67,0.21,0.98,0.35c-1.55-0.72-3.23-0.78-5.05,0.14
		c-7.37,3.82-2.44,14.61-2.44,14.61c1.51,5.57-1.82,7.66-9.39,14.11c-7.57,6.46-14.43,11.53-1.49,23.52
		c0.06,0.05,0.12,0.08,0.21,0.16c-0.39,0.34-0.71,0.67-0.94,0.98c-0.12,0.17-0.22,0.42-0.33,0.7c-0.03,0.05-0.04,0.17-0.09,0.25
		c-0.04,0.22-0.11,0.44-0.16,0.72c-0.03,0.08-0.05,0.17-0.06,0.27c-0.07,0.36-0.12,0.75-0.16,1.18c-0.02,0.11-0.03,0.27-0.03,0.37
		c-0.03,0.36-0.08,0.7-0.08,1.09c-0.02,0.17-0.02,0.34-0.03,0.5c-0.02,0.42-0.04,0.81-0.04,1.26c0,0.11,0,0.22,0,0.33
		c-0.03,0.53-0.03,1.1-0.03,1.67c-0.02,0.19-0.02,0.39-0.02,0.62c0,0.42,0,0.83,0.02,1.28c0,0.19,0,0.39,0,0.61c0,0.5,0,1.01,0,1.5
		c0.03,0.06,0.03,0.11,0.03,0.17c0,0.03,0,0.05,0,0.09c0,0.56,0,1.17,0,1.72c0,0.17,0,0.31,0,0.47c0,0.57,0,1.09,0,1.62
		c0,0.06,0,0.14,0,0.23c-0.03,0.61-0.04,1.22-0.05,1.8c0,0.06,0,0.11,0,0.14c-0.12,3.05-0.4,5.44-1.18,6.31
		c-0.22,0.25-0.49,0.53-0.73,0.83c0,0-0.04,0.03-0.05,0.05c-0.22,0.26-0.46,0.54-0.71,0.81c-0.02,0.05-0.06,0.12-0.11,0.13h0.01
		c-1.12,1.4-2.21,3.12-2.56,5.16h-0.02c-0.02,0.05-0.02,0.13-0.04,0.22c-0.04,0.17-0.05,0.35-0.07,0.52c0,0.14-0.02,0.31-0.02,0.45
		c0,0.23,0,0.45,0,0.7c0.02,0.22,0.02,0.47,0.05,0.73c0.01,0.13,0.05,0.27,0.07,0.42c0.04,0.19,0.07,0.39,0.14,0.61
		c0.02,0.14,0.09,0.31,0.11,0.45c0.07,0.22,0.15,0.44,0.23,0.66c0.06,0.17,0.11,0.28,0.18,0.45c0.11,0.26,0.24,0.51,0.37,0.76
		c0.07,0.15,0.12,0.26,0.19,0.36c0.2,0.42,0.45,0.81,0.73,1.2c4.76,6.99,18.17,14.54,21.8,6.71c3.65-7.82,7.96-4.98,11.01-3.34
		s11.08,3.34,21.16-0.83c3.54-1.48,5.51-2.95,6.77-4.5c0.58,0.51,1.17,0.93,1.74,1.21c4.84,2.45,20.06,13.51,24.87,10.17
		c4.81-3.37,20.56,1.31,21.61-7.69c0.04-0.52,0.13-1.03,0.25-1.5c0.04-0.19,0.1-0.34,0.15-0.5c0.07-0.3,0.14-0.58,0.25-0.86
		c0.08-0.19,0.14-0.36,0.2-0.53c0.1-0.24,0.2-0.46,0.31-0.68c0.06-0.17,0.14-0.34,0.25-0.5c0.12-0.22,0.2-0.39,0.33-0.58
		c0.09-0.17,0.19-0.31,0.29-0.48c0.09-0.19,0.19-0.36,0.32-0.56c0.11-0.14,0.2-0.27,0.3-0.42c0.14-0.22,0.3-0.45,0.46-0.66
		c0.11-0.14,0.23-0.31,0.32-0.48c0.12-0.17,0.25-0.34,0.35-0.5c0.09-0.11,0.17-0.26,0.26-0.36c0.1-0.17,0.19-0.3,0.27-0.44
		c0.06-0.14,0.13-0.28,0.21-0.42c0.06-0.11,0.11-0.27,0.19-0.39c0.07-0.17,0.1-0.34,0.18-0.53c0.02-0.08,0.06-0.19,0.09-0.3
		c0.04-0.28,0.09-0.56,0.11-0.87c0-0.08-0.04-0.17-0.04-0.27c-0.03-0.23-0.04-0.45-0.07-0.67c-0.04-0.11-0.08-0.26-0.12-0.36
		c-0.06-0.22-0.11-0.48-0.26-0.7c-0.04-0.14-0.11-0.27-0.17-0.42c-0.12-0.25-0.27-0.5-0.42-0.75c-0.08-0.17-0.19-0.31-0.27-0.48
		c-0.12-0.17-0.21-0.31-0.34-0.49c0,0.03-0.02,0.03-0.02,0.03c-0.48-0.67-1.04-1.4-1.79-2.18c0,0,0.73-0.23,1.69-0.67
		c0.75,2.73,2.51,8.42,4.89,10.59c3.2,2.86,7.11,11.54,11.62,10.6c2.59-0.53,8.18-0.93,12.79-2.23c1.2,1.13,2.97,2.17,5.64,2.98
		c0.65,0.19,1.31,0.33,1.94,0.47c0.16,0.06,0.32,0.06,0.49,0.09c0.5,0.11,1.03,0.17,1.52,0.25c0.13,0,0.26,0.03,0.41,0.03
		c0.61,0.06,1.21,0.09,1.8,0.09c0.11,0,0.19,0,0.29,0c0.49-0.03,0.97-0.03,1.45-0.09c0.17,0,0.35-0.03,0.51-0.05
		c0.42-0.05,0.85-0.14,1.25-0.22c0.14-0.03,0.29-0.03,0.45-0.06c0.49-0.11,0.96-0.25,1.44-0.42c0.23-0.05,0.44-0.17,0.65-0.25
		c0.27-0.09,0.56-0.19,0.8-0.31c0.26-0.11,0.5-0.19,0.75-0.34c0.19-0.08,0.42-0.19,0.6-0.31c0.52-0.27,1.04-0.58,1.54-0.91
		c0.11-0.06,0.19-0.12,0.3-0.18c0.3-0.22,0.6-0.44,0.9-0.66c0.07-0.08,0.16-0.14,0.25-0.22c0.99-0.78,1.89-1.67,2.74-2.65
		c0,0,0.04,0,0.04-0.02l0,0c1.78-2.05,3.31-4.47,4.46-7.15c1.94-4.4,4.08-7.91,5.82-10.43c3.42,7.1,6.81,5.34,11.51,8.88
		c4.53,3.39,14.89,0.13,24.02-6.38c0.26,0.11,0.44,0.25,0.7,0.34c0.51,0.17,0.99,0.36,1.44,0.58c0.15,0.06,0.28,0.17,0.42,0.22
		c0.27,0.18,0.56,0.31,0.81,0.45c0.15,0.11,0.29,0.19,0.43,0.27c0.23,0.17,0.45,0.31,0.65,0.48c0.14,0.11,0.27,0.22,0.4,0.34
		c0.19,0.14,0.37,0.31,0.56,0.47c0.09,0.11,0.23,0.22,0.34,0.31c0.18,0.19,0.35,0.36,0.51,0.53c0.11,0.08,0.19,0.19,0.28,0.27
		c0.28,0.28,0.51,0.56,0.76,0.84c0.07,0.05,0.12,0.12,0.17,0.16c0.17,0.19,0.34,0.36,0.51,0.54c0.08,0.11,0.19,0.19,0.27,0.27
		c0.16,0.14,0.27,0.26,0.41,0.39c0.13,0.09,0.21,0.17,0.33,0.25c0.12,0.11,0.25,0.23,0.39,0.31c0.12,0.09,0.28,0.13,0.42,0.26
		c0.12,0.05,0.21,0.11,0.33,0.16c0.25,0.14,0.53,0.23,0.82,0.28c0.11,0.03,0.23,0.03,0.34,0.05c0.21,0.04,0.41,0.06,0.61,0.06
		c0.14,0,0.3-0.03,0.44-0.03c0.22-0.04,0.42-0.04,0.65-0.09c0.18-0.03,0.35-0.05,0.52-0.12c0.26-0.05,0.5-0.13,0.75-0.22
		c0.19-0.05,0.39-0.14,0.61-0.23c0.15-0.08,0.3-0.11,0.48-0.19h-0.01c0.77-0.34,1.57-0.75,2.52-1.28c0,0,0.18,2.37,1.23,4.74
		c0.02,0,0.02,0,0.02,0c0.14,0.27,0.27,0.56,0.44,0.83c0.01,0.03,0.02,0.09,0.05,0.11c0.14,0.25,0.29,0.5,0.44,0.72
		c0.05,0.06,0.09,0.12,0.12,0.17c0.16,0.23,0.34,0.42,0.51,0.62c0.06,0.08,0.11,0.11,0.18,0.19c0.18,0.17,0.37,0.36,0.56,0.53
		c0.08,0.06,0.17,0.11,0.24,0.17c0.19,0.15,0.4,0.29,0.63,0.43c0.07,0.05,0.18,0.11,0.27,0.16c0.25,0.11,0.49,0.23,0.75,0.31
		c0.1,0.03,0.19,0.09,0.28,0.12c0.37,0.11,0.74,0.19,1.16,0.25c6.27,0.7,7.04-5.39,9.78-7.48c2.74-2.11,4.95-1.79,6.59-5.32
		c1.66-3.56,4.54-6.89,8.4-8.57c0.21-0.08,0.42-0.22,0.66-0.35c0.06-0.04,0.13-0.09,0.19-0.12c0.18-0.11,0.35-0.22,0.51-0.36
		c0.07-0.05,0.14-0.11,0.2-0.16c0.17-0.15,0.31-0.29,0.5-0.43l0,0c-0.04,0.28-0.06,0.51-0.06,0.79c0,0.14,0,0.25,0,0.36
		c0,0.25,0,0.49,0,0.72c0.02,0.14,0.06,0.26,0.08,0.39c0.01,0.25,0.04,0.44,0.09,0.67c0.04,0.13,0.06,0.27,0.1,0.44
		c0.08,0.19,0.1,0.39,0.18,0.58c0.06,0.14,0.13,0.31,0.19,0.44c0.08,0.17,0.16,0.37,0.24,0.53c0.1,0.17,0.19,0.31,0.28,0.44
		c0.11,0.22,0.2,0.35,0.32,0.52c0.12,0.14,0.29,0.31,0.42,0.44c0.12,0.14,0.23,0.28,0.37,0.42c0.29,0.28,0.61,0.56,0.97,0.78
		c5.9,4.01,17.73,15.33,24.4,12.78c0,0,7.27,6.17,12.18,6.39c4.94,0.19,13.81,4.69,18.02,0.76c3.39-3.16,13.04-10.16,16.14-15.89
		c0.03-0.06,0.11-0.14,0.11-0.19C424.58,162.57,424.68,162.36,424.76,162.13z"/>
	<polygon class="st1" points="369.7,500.5 131.29,500.5 82.94,165.19 418.07,165.19 	"/>
	<g>
		<g>
			<polygon class="st2" points="152.96,500.5 131.29,500.5 82.94,165.19 113.4,165.19 			"/>
			<polygon class="st2" points="196.31,500.5 174.64,500.5 143.87,165.19 174.33,165.19 			"/>
			<polygon class="st2" points="239.67,500.5 217.99,500.5 204.8,165.19 235.26,165.19 			"/>
			<polygon class="st2" points="283.02,500.5 261.32,500.5 265.75,165.19 296.19,165.19 			"/>
			<polygon class="st2" points="326.37,500.5 304.68,500.5 326.67,165.19 357.15,165.19 			"/>
			<polygon class="st2" points="369.7,500.5 348.03,500.5 387.59,165.19 418.07,165.19 			"/>
		</g>
	</g>
	<path class="st3" d="M436.32,165.19c0,5.15-4.24,9.37-9.42,9.37H74.1c-5.18,0-9.41-4.22-9.41-9.37l0,0c0-5.21,4.23-9.42,9.41-9.42
		h352.8C432.07,155.77,436.32,159.99,436.32,165.19L436.32,165.19z"/>
</g>
</svg>
